<?xml version="1.0" encoding="utf-8"?><svg viewBox="0 0 21 13" xmlns="http://www.w3.org/2000/svg" xmlns:xlink="http://www.w3.org/1999/xlink"><style>:root>svg{display:none}:root>svg:target{display:block}</style><svg fill="none" viewBox="0 0 12 13" id="dzen-orange" xmlns="http://www.w3.org/2000/svg"><path d="M5.41.733C2.827.975.69 2.777.14 5.175a5.626 5.626 0 0 0-.138 1.03v.08l.458-.012c1.69-.04 2.582-.154 3.284-.417.799-.301 1.373-.845 1.688-1.6.21-.5.334-1.143.398-2.054.018-.283.051-1.095.051-1.337V.707L5.766.71a7.904 7.904 0 0 0-.357.024ZM6.24.962c0 .343.03 1.01.06 1.41.095 1.2.314 1.945.745 2.517.2.268.551.576.85.744.754.425 1.688.586 3.699.64l.406.011v-.071c0-.239-.063-.713-.139-1.038C11.347 2.928 9.432 1.19 7.03.789a10.678 10.678 0 0 0-.766-.082c-.017 0-.022.052-.022.255ZM.01 6.752c.122 1.586.857 2.96 2.134 3.996.778.634 1.851 1.1 2.888 1.258.204.032.633.073.761.073h.093l-.012-.377c-.034-1.124-.094-1.77-.218-2.333-.16-.733-.423-1.244-.853-1.667C4.028 6.945 2.96 6.675.545 6.627L0 6.616l.01.136ZM11.271 6.632c-2.276.071-3.301.365-4.042 1.155-.639.682-.894 1.597-.972 3.488-.023.588-.022.804.006.804.087 0 .588-.053.754-.08a6.336 6.336 0 0 0 1.9-.634c1.51-.803 2.596-2.194 2.952-3.786.058-.26.127-.761.13-.947 0-.01-.396-.011-.728 0Z" fill="#FF7101"/></svg><svg fill="none" viewBox="0 0 12 12" id="dzen-white" xmlns="http://www.w3.org/2000/svg"><path d="M5.41.027C2.827.27.69 2.09.14 4.512c-.076.335-.138.8-.138 1.04v.08l.458-.011c1.69-.041 2.582-.156 3.284-.422.799-.303 1.373-.853 1.688-1.616.21-.503.334-1.153.398-2.073.018-.286.051-1.106.051-1.35V0l-.115.002a7.828 7.828 0 0 0-.357.025ZM6.24.258c0 .346.03 1.02.06 1.424.095 1.212.314 1.963.745 2.541.2.27.551.582.85.751.754.43 1.688.593 3.699.647l.406.011V5.56c0-.24-.063-.72-.139-1.048C11.347 2.243 9.432.488 7.03.082A10.577 10.577 0 0 0 6.263 0c-.017 0-.022.053-.022.258ZM.01 6.105c.122 1.6.857 2.989 2.134 4.035.778.64 1.851 1.111 2.888 1.27.204.033.633.074.761.074h.093l-.012-.38c-.034-1.136-.094-1.79-.218-2.357-.16-.74-.423-1.256-.853-1.683C4.028 6.299 2.96 6.027.545 5.978L0 5.967l.01.138ZM11.271 5.983c-2.276.072-3.301.37-4.042 1.167-.639.689-.894 1.612-.972 3.522-.023.594-.022.812.006.812.087 0 .588-.054.754-.082a6.293 6.293 0 0 0 1.9-.64c1.51-.81 2.596-2.214 2.952-3.822.058-.262.127-.77.13-.956 0-.01-.396-.012-.728 0Z" fill="#fff"/></svg><svg fill="none" viewBox="0 0 7 13" id="odnoklasniki-orange" xmlns="http://www.w3.org/2000/svg"><g clip-path="url(#ca)" fill="#FF7101"><path d="M4.108 8.805c.04.025.087.042.12.075l1.937 1.908c.164.16.269.343.265.579a.731.731 0 0 1-.78.714c-.221-.01-.392-.114-.544-.264-.505-.5-1.013-.997-1.513-1.497-.073-.075-.116-.072-.19 0-.525.521-1.055 1.043-1.585 1.561A.764.764 0 0 1 .81 11.9a.716.716 0 0 1-.04-1.043c.429-.436.868-.858 1.303-1.287.243-.24.486-.482.733-.722.022-.021.044-.046.08-.089l-.327-.057a5.137 5.137 0 0 1-1.88-.704 4.11 4.11 0 0 1-.431-.31c-.232-.19-.29-.448-.222-.72.07-.267.258-.435.538-.507.246-.064.457.011.645.147.476.336.998.565 1.572.665 1.045.185 2.01-.018 2.903-.59.138-.09.29-.16.446-.222.24-.092.65.075.795.369.141.289.083.657-.163.864-.345.293-.744.5-1.158.68a5.03 5.03 0 0 1-1.368.367.31.31 0 0 0-.062.015c-.01.003-.018.01-.025.017-.018.004-.03.018-.04.033Z"/><path d="M6.42 3.59c.003 1.591-1.34 2.895-2.965 2.874C1.88 6.442.562 5.152.573 3.559.588 1.997 1.905.689 3.527.707c1.59.018 2.9 1.3 2.892 2.884Zm-1.492-.006c.036-.68-.58-1.462-1.513-1.415-.726.035-1.35.625-1.357 1.393a1.425 1.425 0 0 0 1.433 1.44c.83 0 1.462-.679 1.437-1.418Z"/></g><defs><clipPath id="ca"><path fill="#fff" transform="translate(0 .707)" d="M0 0h7v11.374H0z"/></clipPath></defs></svg><svg fill="none" viewBox="0 0 7 12" id="odnoklasniki-white" xmlns="http://www.w3.org/2000/svg"><g clip-path="url(#da)" fill="#fff"><path d="M4.108 8.177c.04.025.087.043.12.076l1.937 1.927c.164.162.269.346.265.584a.734.734 0 0 1-.78.722c-.221-.011-.392-.116-.544-.267-.505-.505-1.013-1.007-1.513-1.512-.073-.076-.117-.072-.19 0-.525.527-1.055 1.053-1.585 1.577a.758.758 0 0 1-1.009.018.728.728 0 0 1-.04-1.054c.429-.44.868-.866 1.303-1.299.243-.242.486-.487.733-.729.022-.022.044-.047.08-.09l-.327-.058a5.106 5.106 0 0 1-1.88-.71 4.113 4.113 0 0 1-.431-.315c-.232-.19-.29-.45-.222-.725.07-.27.258-.44.537-.512.247-.065.458.01.646.148.476.339.998.57 1.572.67 1.045.188 2.01-.017 2.903-.595.138-.09.29-.162.446-.223.24-.094.65.075.795.371.141.293.083.664-.163.874-.345.295-.744.505-1.158.685-.44.188-.893.314-1.368.372a.308.308 0 0 0-.062.014c-.01.004-.018.011-.025.018-.018.004-.03.018-.04.033Z"/><path d="M6.42 2.912c.003 1.606-1.34 2.923-2.965 2.902C1.88 5.792.562 4.489.573 2.88.588 1.303 1.905-.018 3.527 0c1.59.018 2.9 1.314 2.892 2.912Zm-1.492-.007c.036-.686-.58-1.476-1.513-1.429a1.43 1.43 0 0 0-1.357 1.407A1.432 1.432 0 0 0 3.49 4.338c.83 0 1.462-.686 1.437-1.433Z"/></g><defs><clipPath id="da"><path fill="#fff" d="M0 0h7v11.486H0z"/></clipPath></defs></svg><svg fill="none" viewBox="0 0 11 13" id="triagle-orange" xmlns="http://www.w3.org/2000/svg"><path d="M10.037 6.574.319.89.255 12.148l9.782-5.574Z" fill="#FF7101"/></svg><svg fill="none" viewBox="0 0 21 13" id="vkontakte-orange" xmlns="http://www.w3.org/2000/svg"><path d="M0 1.529c.12-.185.3-.273.527-.286.109-.006.218-.015.327-.016l2.666-.013c.457-.002.757.188.96.588.53 1.045 1.081 2.082 1.646 3.111.236.43.54.825.949 1.131.095.071.202.135.314.176.254.094.445.015.577-.207.197-.333.213-.703.258-1.067a7.468 7.468 0 0 0-.09-2.522c-.11-.5-.43-.77-.943-.868-.262-.051-.28-.114-.095-.302.217-.22.48-.366.794-.41C9.073.677 10.26.653 11.443.828c.584.087.805.277.857.93.04.499-.004 1.005-.01 1.508-.008.671-.025 1.342-.018 2.013.003.196.048.4.121.584.157.395.478.453.817.188.553-.433.922-1 1.302-1.559.576-.849 1.046-1.75 1.445-2.685.212-.498.307-.551.867-.555 1.1-.008 2.201-.025 3.302-.03.168-.002.343.017.503.062.314.087.412.255.356.558-.087.467-.316.883-.596 1.262-.715.968-1.459 1.917-2.188 2.875-.164.215-.332.428-.472.656-.24.389-.202.737.13 1.06.481.468.985.915 1.472 1.376.532.504 1.04 1.027 1.426 1.643.078.125.143.264.184.404.148.501-.108.772-.623.82-.462.044-.929.035-1.393.046-.601.015-1.203.035-1.804.036-.511 0-.975-.175-1.352-.484-.416-.342-.784-.736-1.172-1.107-.282-.27-.56-.546-.847-.812a1.094 1.094 0 0 0-.27-.173c-.254-.123-.441-.096-.654.086-.373.318-.462.748-.518 1.188-.025.192-.023.386-.036.58-.028.393-.227.618-.64.65-1.805.138-3.515-.065-5.065-1.077-1.031-.673-1.867-1.498-2.61-2.434C2.37 6.44 1.147 4.247.083 1.971.057 1.913.028 1.857 0 1.8v-.271Z" fill="#FF7101"/></svg><svg fill="none" viewBox="0 0 21 12" id="vkontakte-white" xmlns="http://www.w3.org/2000/svg"><path d="M0 .83C.12.642.3.553.527.54.636.535.745.526.854.525 1.743.519 2.632.517 3.52.512c.457-.003.757.19.96.593.53 1.056 1.081 2.103 1.646 3.143.236.433.54.832.949 1.142.095.071.202.136.314.178.254.094.445.014.577-.21.197-.336.213-.71.258-1.077a7.614 7.614 0 0 0-.09-2.547c-.11-.506-.43-.777-.943-.877-.262-.051-.28-.115-.095-.305.217-.223.48-.37.794-.414 1.183-.169 2.369-.193 3.553-.016.584.087.805.28.857.938.04.505-.004 1.016-.01 1.524-.008.678-.025 1.355-.018 2.033.003.198.048.404.121.59.157.398.478.457.817.19.553-.438.922-1.01 1.302-1.575a15.912 15.912 0 0 0 1.445-2.712c.212-.502.307-.556.867-.56 1.1-.008 2.201-.025 3.302-.031.168-.001.343.018.503.063.314.088.412.258.356.564-.087.472-.316.892-.596 1.275-.715.977-1.459 1.935-2.188 2.903-.164.217-.332.432-.472.662-.24.393-.202.744.13 1.071.481.473.985.923 1.472 1.39.532.508 1.04 1.036 1.426 1.658.078.127.143.267.184.409.148.505-.108.779-.623.828-.462.043-.929.035-1.393.046-.601.015-1.203.035-1.804.036-.511 0-.975-.177-1.352-.489-.416-.345-.784-.742-1.172-1.118-.282-.273-.56-.551-.847-.82a1.092 1.092 0 0 0-.27-.174c-.254-.125-.441-.097-.654.087-.373.32-.462.755-.518 1.2-.025.193-.023.39-.036.584-.028.398-.227.625-.64.657-1.805.14-3.515-.065-5.065-1.087-1.031-.68-1.867-1.513-2.61-2.458-1.587-2.018-2.81-4.23-3.874-6.53C.057 1.218.028 1.161 0 1.103V.83Z" fill="#fff"/></svg></svg>