<svg width="139" height="405" fill="none" xmlns="http://www.w3.org/2000/svg"><g clip-path="url(#clip0_626_782)" stroke="#FF770D" stroke-miterlimit="10"><path d="M.054 188.772c.993-.107 2.009-.45 3.024-.995"/><path d="M8.025 183.595C26.47 162.791 47.381 85.406 60.247 54.014c14.2-34.666 55.085-48.1 70.846-52.078" stroke-dasharray="6.09 6.09"/><path d="M134.267 1.166c1.998-.45 3.141-.642 3.141-.642"/><path d="M.833 194.655s33.82-7.541 52.467-18.184c26.233-14.974 42.85-55.501 47.84-63.105 15.43-23.531 37.037-26.74 37.037-26.74M.054 200.537s51.697-4.813 70.216-11.23c18.518-6.418 38.458-18.462 43.213-21.392 13.891-8.557 25.464-8.022 25.464-8.022" stroke-dasharray="6 6"/><path d="M.086 216.228c.994.107 2.009.449 3.024.995"/><path d="M8.047 221.405c18.443 20.803 39.355 98.188 52.221 129.581 14.201 34.665 55.085 48.099 70.846 52.078" stroke-dasharray="6.09 6.09"/><path d="M134.288 403.834c1.998.449 3.142.642 3.142.642"/><path d="M.854 210.345s33.82 7.541 52.467 18.183c26.234 14.974 42.85 55.501 47.84 63.106 15.431 23.531 37.037 26.74 37.037 26.74M.086 204.463s51.697 4.813 70.216 11.231c18.518 6.417 38.458 18.461 43.213 21.391 13.891 8.557 25.464 8.022 25.464 8.022" stroke-dasharray="6 6"/></g><defs><clipPath id="clip0_626_782"><path fill="#fff" d="M0 0h139v405H0z"/></clipPath></defs></svg>