<svg width="215" height="43" fill="none" xmlns="http://www.w3.org/2000/svg"><g clip-path="url(#clip0_879_1465)" fill="#fff"><path d="M215 14.11h-8.934l-6.432 6.364h-1.349v-6.365h-11.538V43h11.538v-7.908l1.142-1.03L205.158 43h9.837v-5.777l-7.668-10.278L215 20.028V14.11zm-43.909 15.83l-1.526-6.343h-1.054l-1.592 6.343h4.172zm14.011 7.138v5.925H174.33l-1.28-5.33h-7.971l-1.335 5.33h-9.519v-5.925l7.259-22.966h16.362l7.256 22.966zm-43.023-22.969h-4.122l-3.311 8.917h-1.01l-3.81-8.917h-14.687V43h10.658V29.646h1.09l4.039 9.294h5.833l4.04-9.294h1.128V43h10.659V14.11h-10.507zm-39.431 8.9s-.32-1.049-2.097-1.049h-3.874v4.98h3.874c1.777 0 2.097-1.05 2.097-1.05v-2.88zm10.86-3.658v10.141s-2.88 5.238-9.218 5.238h-7.613V43H85.125V14.11h19.165c6.338 0 9.218 5.24 9.218 5.24zm-42.383 15.8v-2.757h8.807V24.54h-8.807v-2.58H83.16v-7.85H59.572V43H83.48v-7.851H71.125v.002zM54.283 13.216l-8.881 22.933-18.26-8.89-18.26 8.89-2.246-5.799 20.506-9.986v-3.612L5.458 27.312l-2.244-5.8L27.142 9.86V6.892L2.246 19.015 0 13.215 27.142 0l27.141 13.216z"/><path d="M9.624 39.264v3.706h35.033v-3.706L27.142 30.75 9.623 39.264z"/></g><defs><clipPath id="clip0_879_1465"><path fill="#fff" d="M0 0h215v43H0z"/></clipPath></defs></svg>