<svg width="12" height="13" viewBox="0 0 12 13" fill="none" xmlns="http://www.w3.org/2000/svg">
<path d="M5.40948 0.733377C2.82836 0.975453 0.689076 2.7772 0.140763 5.17498C0.0637105 5.5065 0.00195312 5.96767 0.00195312 6.20482V6.28442L0.45965 6.27294C2.14961 6.23245 3.04249 6.11866 3.74376 5.85552C4.54256 5.55491 5.11656 5.01086 5.43199 4.25536C5.64121 3.75671 5.76617 3.11337 5.82966 2.20197C5.84842 1.91941 5.88103 1.10701 5.88103 0.864934V0.707386L5.76617 0.709029C5.70095 0.71067 5.54136 0.721889 5.40948 0.733377Z" fill="#FF7101"/>
<path d="M6.24072 0.962313C6.24072 1.30505 6.26987 1.97275 6.30075 2.37238C6.39512 3.57291 6.61444 4.31691 7.04472 4.88887C7.24529 5.15693 7.5965 5.46546 7.8949 5.63286C8.64897 6.05848 9.58313 6.21933 11.5937 6.27294L12 6.28442V6.21302C12 5.97423 11.9365 5.49993 11.8612 5.17498C11.347 2.92819 9.43248 1.1899 7.02943 0.788631C6.8684 0.762646 6.35414 0.707386 6.26323 0.707386C6.24563 0.707386 6.24072 0.759353 6.24072 0.962313Z" fill="#FF7101"/>
<path d="M0.0103891 6.7521C0.132172 8.33776 0.867489 9.71199 2.14419 10.7484C2.92222 11.3819 3.99518 11.8483 5.03236 12.0058C5.23639 12.0384 5.66494 12.0789 5.79336 12.0789H5.886L5.87388 11.7019C5.83954 10.5777 5.77951 9.93108 5.65628 9.36897C5.49525 8.63618 5.23293 8.12468 4.80265 7.70207C4.02779 6.94494 2.96003 6.67524 0.545139 6.62655L0 6.6156L0.0103891 6.7521Z" fill="#FF7101"/>
<path d="M11.2711 6.63197C8.995 6.70336 7.96994 6.99741 7.22943 7.78709C6.59022 8.46928 6.33482 9.38397 6.25748 11.2752C6.23352 11.8633 6.23525 12.0793 6.26267 12.0793C6.35011 12.0793 6.85052 12.0257 7.01675 11.9981C7.68338 11.8876 8.34857 11.6666 8.91766 11.3646C10.4275 10.5621 11.5126 9.17144 11.869 7.57949C11.9273 7.31963 11.996 6.81769 11.9992 6.63224C11.9995 6.62239 11.6035 6.62075 11.2711 6.63197Z" fill="#FF7101"/>
</svg>
