<svg width="12" height="12" viewBox="0 0 12 12" fill="none" xmlns="http://www.w3.org/2000/svg">
<path d="M5.40948 0.0265779C2.82836 0.271039 0.689076 2.09054 0.140763 4.51195C0.0637105 4.84673 0.00195312 5.31245 0.00195312 5.55194V5.63232L0.45965 5.62072C2.14961 5.57984 3.04249 5.46493 3.74376 5.1992C4.54256 4.89562 5.11656 4.34621 5.43199 3.58327C5.64121 3.07971 5.76617 2.43003 5.82966 1.50964C5.84842 1.2243 5.88103 0.403892 5.88103 0.159431V0.000331402L5.76617 0.00199032C5.70095 0.0036478 5.54136 0.0149765 5.40948 0.0265779Z" fill="white"/>
<path d="M6.24072 0.25777C6.24072 0.603882 6.26987 1.27816 6.30075 1.68173C6.39512 2.89409 6.61444 3.64542 7.04472 4.22301C7.24529 4.49372 7.5965 4.80529 7.8949 4.97434C8.64897 5.40415 9.58313 5.56658 11.5937 5.62072L12 5.63232V5.56022C12 5.31907 11.9365 4.8401 11.8612 4.51195C11.347 2.24302 9.43248 0.487601 7.02943 0.0823765C6.8684 0.0561352 6.35414 0.000331402 6.26323 0.000331402C6.24563 0.000331402 6.24072 0.0528092 6.24072 0.25777Z" fill="white"/>
<path d="M0.0103891 6.10464C0.132172 7.70593 0.867489 9.09369 2.14419 10.1403C2.92222 10.7801 3.99518 11.251 5.03236 11.4101C5.23639 11.443 5.66494 11.4839 5.79336 11.4839H5.886L5.87388 11.1032C5.83954 9.96795 5.77951 9.31494 5.65628 8.7473C5.49525 8.00729 5.23293 7.49074 4.80265 7.06397C4.02779 6.29938 2.96003 6.02702 0.545139 5.97785L0 5.96679L0.0103891 6.10464Z" fill="white"/>
<path d="M11.2711 5.98332C8.995 6.05542 7.96994 6.35236 7.22943 7.14983C6.59022 7.83874 6.33482 8.76244 6.25748 10.6723C6.23352 11.2662 6.23525 11.4844 6.26267 11.4844C6.35011 11.4844 6.85052 11.4302 7.01675 11.4023C7.68338 11.2907 8.34857 11.0676 8.91766 10.7626C10.4275 9.95215 11.5126 8.54781 11.869 6.94017C11.9273 6.67776 11.996 6.17087 11.9992 5.98359C11.9995 5.97365 11.6035 5.97199 11.2711 5.98332Z" fill="white"/>
</svg>
