<svg width="7" height="12" viewBox="0 0 7 12" fill="none" xmlns="http://www.w3.org/2000/svg">
<g clip-path="url(#clip0_799_14)">
<path d="M4.10785 8.17681C4.14777 8.20207 4.19494 8.22011 4.2276 8.25259C4.87353 8.89492 5.51946 9.53724 6.16539 10.1796C6.32869 10.342 6.43392 10.526 6.4303 10.7642C6.42304 11.1864 6.07104 11.5075 5.6501 11.4859C5.42874 11.475 5.25819 11.3704 5.10578 11.2188C4.60137 10.7136 4.09333 10.212 3.59256 9.70684C3.51998 9.63106 3.47643 9.63467 3.40386 9.70684C2.87768 10.2337 2.34787 10.7605 1.81806 11.2838C1.54953 11.5472 1.08504 11.5508 0.809249 11.3018C0.500799 11.0204 0.475397 10.5512 0.769332 10.2481C1.19753 9.80788 1.63662 9.38207 2.07208 8.94904C2.31521 8.70727 2.55834 8.46189 2.8051 8.22011C2.82687 8.19846 2.84865 8.1732 2.88494 8.1299C2.76156 8.10825 2.65995 8.0902 2.55834 8.07216C1.88338 7.9603 1.25922 7.72213 0.678611 7.36127C0.526201 7.26745 0.384677 7.15919 0.246781 7.04733C0.0145366 6.85607 -0.0435246 6.59626 0.025423 6.322C0.0943707 6.05136 0.283069 5.88176 0.562489 5.80959C0.809249 5.74463 1.01972 5.82041 1.20842 5.95754C1.6838 6.29674 2.20635 6.52769 2.7797 6.62873C3.8248 6.81638 4.79007 6.61069 5.68276 6.03332C5.82065 5.9431 5.97306 5.87093 6.1291 5.80959C6.36861 5.71576 6.77866 5.88537 6.92382 6.18127C7.06534 6.47356 7.00728 6.84525 6.76052 7.05454C6.41578 7.35045 6.01661 7.55974 5.60292 7.74017C5.16384 7.92782 4.71023 8.05412 4.23486 8.11186C4.21309 8.11546 4.19131 8.11907 4.17317 8.12629C4.16228 8.1299 4.15502 8.13712 4.14777 8.14433C4.12962 8.14794 4.11874 8.16238 4.10785 8.17681Z" fill="white"/>
<path d="M6.4194 2.9123C6.42303 4.51811 5.08037 5.83524 3.45466 5.81359C1.87975 5.79194 0.562484 4.48925 0.57337 2.87982C0.587886 1.30288 1.90515 -0.0178602 3.52723 0.000182707C5.11666 0.0182256 6.42666 1.3137 6.4194 2.9123ZM4.92796 2.90508C4.96425 2.21945 4.34735 1.42918 3.41474 1.47609C2.68897 1.51217 2.06482 2.10759 2.05756 2.88343C2.0503 3.68814 2.68897 4.33769 3.49094 4.33769C4.32194 4.33769 4.95336 3.65206 4.92796 2.90508Z" fill="white"/>
</g>
<defs>
<clipPath id="clip0_799_14">
<rect width="7" height="11.4861" fill="white"/>
</clipPath>
</defs>
</svg>
