<svg width="7" height="13" viewBox="0 0 7 13" fill="none" xmlns="http://www.w3.org/2000/svg">
<g clip-path="url(#clip0_677_311)">
<path d="M4.10791 8.80458C4.14783 8.8296 4.195 8.84746 4.22766 8.87962C4.87359 9.51568 5.51952 10.1517 6.16545 10.7878C6.32875 10.9486 6.43399 11.1308 6.43036 11.3667C6.4231 11.7848 6.0711 12.1028 5.65016 12.0814C5.4288 12.0706 5.25825 11.967 5.10584 11.8169C4.60143 11.3167 4.09339 10.82 3.59262 10.3197C3.52004 10.2446 3.4765 10.2482 3.40392 10.3197C2.87774 10.8414 2.34793 11.3631 1.81812 11.8812C1.54959 12.1421 1.0851 12.1457 0.80931 11.8991C0.50086 11.6204 0.475458 11.1559 0.769393 10.8557C1.19759 10.4197 1.63668 9.99808 2.07214 9.56928C2.31527 9.32987 2.5584 9.08688 2.80516 8.84746C2.82694 8.82602 2.84871 8.80101 2.885 8.75813C2.76162 8.73669 2.66001 8.71882 2.5584 8.70095C1.88344 8.59018 1.25928 8.35434 0.678672 7.997C0.526262 7.9041 0.384738 7.79689 0.246842 7.68612C0.0145976 7.49673 -0.0434636 7.23945 0.0254841 6.96788C0.0944317 6.69987 0.283131 6.53193 0.56255 6.46046C0.80931 6.39614 1.01978 6.47118 1.20848 6.60697C1.68386 6.94286 2.20641 7.17156 2.77976 7.27161C3.82486 7.45743 4.79013 7.25374 5.68282 6.68201C5.82071 6.59267 5.97312 6.52121 6.12916 6.46046C6.36867 6.36755 6.77872 6.5355 6.92388 6.82851C7.0654 7.11796 7.00734 7.48601 6.76058 7.69327C6.41584 7.98628 6.01667 8.19354 5.60298 8.37221C5.1639 8.55802 4.71029 8.68309 4.23492 8.74026C4.21315 8.74383 4.19137 8.74741 4.17323 8.75456C4.16234 8.75813 4.15509 8.76528 4.14783 8.77242C4.12968 8.776 4.1188 8.79029 4.10791 8.80458Z" fill="#FF7101"/>
<path d="M6.41934 3.59091C6.42297 5.18106 5.08031 6.48534 3.45459 6.4639C1.87969 6.44246 0.562423 5.15247 0.573309 3.55875C0.587824 1.9972 1.90509 0.689345 3.52717 0.707212C5.1166 0.725079 6.4266 2.00792 6.41934 3.59091ZM4.9279 3.58377C4.96418 2.90483 4.34728 2.12226 3.41468 2.16872C2.68891 2.20445 2.06476 2.79405 2.0575 3.56233C2.05024 4.35919 2.68891 5.00239 3.49088 5.00239C4.32188 5.00239 4.9533 4.32345 4.9279 3.58377Z" fill="#FF7101"/>
</g>
<defs>
<clipPath id="clip0_677_311">
<rect width="7" height="11.374" fill="white" transform="translate(0 0.707275)"/>
</clipPath>
</defs>
</svg>
