<svg viewBox="0 0 10 10" fill="none" xmlns="http://www.w3.org/2000/svg">
<path d="M6.71713 10.0001C6.5703 9.97566 6.42347 9.95612 6.27665 9.9317C5.6736 9.82422 5.123 9.5995 4.60386 9.30639C3.79106 8.84718 3.09888 8.25608 2.45913 7.60146C1.80889 6.93707 1.21634 6.22872 0.749639 5.43732C0.403545 4.85109 0.141353 4.24044 0.0417203 3.57117C-0.0684003 2.82862 0.0259888 2.1105 0.424521 1.44611C0.634274 1.09437 0.906954 0.796378 1.2478 0.542347C1.41036 0.425103 1.55719 0.288317 1.71975 0.171072C2.0606 -0.0780729 2.43291 -0.0683025 2.73705 0.224809C2.9101 0.390906 3.07266 0.571658 3.21424 0.767066C3.47643 1.12857 3.74387 1.48519 3.89594 1.90532C4.05326 2.33522 3.99033 2.72115 3.61802 3.0338C3.424 3.19501 3.23522 3.35622 3.02546 3.48812C2.57974 3.77635 2.51681 4.12808 2.68462 4.58241C2.83669 5.00253 3.10937 5.35915 3.39778 5.70112C3.77533 6.15056 4.18435 6.57557 4.6563 6.93707C4.91849 7.13736 5.19641 7.31812 5.53726 7.3914C5.83616 7.4549 6.08787 7.38163 6.30811 7.1911C6.52835 7.00058 6.74335 6.80517 6.96883 6.62442C7.34114 6.33131 7.75541 6.32154 8.18016 6.52183C8.32174 6.59022 8.45808 6.65862 8.57869 6.75143C9.01393 7.07386 9.4649 7.38651 9.80575 7.81152C10.0837 8.16326 10.0627 8.50033 9.7166 8.79345C9.381 9.07679 9.06637 9.38456 8.66259 9.59462C8.25357 9.80957 7.81833 9.94635 7.34639 9.99032C7.31493 9.99521 7.28346 10.0001 7.25724 10.0099C7.0842 10.0001 6.90066 10.0001 6.71713 10.0001Z" fill="#FF7101"/>
</svg>
