<svg width="21" height="12" viewBox="0 0 21 12" fill="none" xmlns="http://www.w3.org/2000/svg">
<path d="M0 0.829342C0.120838 0.642815 0.300656 0.553666 0.526509 0.541323C0.635838 0.535379 0.744688 0.525779 0.854018 0.524864C1.74256 0.519378 2.63158 0.516635 3.52013 0.511606C3.97711 0.50932 4.27728 0.701791 4.48012 1.10548C5.01094 2.16109 5.56143 3.20802 6.1263 4.24763C6.36222 4.68149 6.66575 5.08015 7.07478 5.38966C7.16972 5.46143 7.27713 5.52589 7.38934 5.5675C7.64253 5.66167 7.83433 5.58213 7.9662 5.35765C8.16328 5.02209 8.17862 4.64766 8.2237 4.28055C8.32823 3.42746 8.31481 2.57941 8.13307 1.73363C8.0247 1.228 7.70342 0.956894 7.19082 0.856773C6.92901 0.805569 6.91174 0.741565 7.09588 0.551838C7.31262 0.329194 7.57635 0.182441 7.89044 0.137638C9.0734 -0.0306024 10.2588 -0.0548326 11.4427 0.122094C12.0272 0.209414 12.2478 0.401884 12.3001 1.06022C12.3403 1.56494 12.2962 2.07606 12.29 2.58398C12.2818 3.26151 12.2651 3.9395 12.2723 4.61703C12.2746 4.81453 12.3202 5.02117 12.3931 5.20679C12.5499 5.60498 12.8712 5.6635 13.2097 5.39606C13.7626 4.959 14.1318 4.38707 14.5116 3.82246C15.0885 2.9648 15.5584 2.05503 15.9569 1.1105C16.1688 0.607613 16.2637 0.554123 16.8238 0.550009C17.9243 0.54178 19.0253 0.524864 20.1258 0.518921C20.2941 0.518007 20.4686 0.536751 20.6293 0.582011C20.9429 0.670246 21.0412 0.839857 20.9851 1.14571C20.8983 1.61797 20.6695 2.03765 20.389 2.42077C19.6736 3.39775 18.9303 4.35598 18.2005 5.32382C18.037 5.54052 17.8687 5.75585 17.7287 5.98581C17.4894 6.37898 17.5268 6.73009 17.8596 7.05743C18.34 7.52969 18.844 7.98046 19.3312 8.44632C19.8625 8.9547 20.3708 9.48319 20.7568 10.1049C20.8354 10.2316 20.9002 10.3719 20.9414 10.5137C21.0891 11.0193 20.8326 11.2927 20.3176 11.3416C19.8563 11.3855 19.3892 11.3768 18.9251 11.3882C18.3237 11.4029 17.7224 11.4234 17.1211 11.4239C16.61 11.4244 16.1458 11.2474 15.7689 10.9352C15.3527 10.5905 14.9849 10.1927 14.5969 9.81739C14.3145 9.544 14.0364 9.26604 13.7496 8.99722C13.6734 8.92544 13.5761 8.86967 13.4797 8.82258C13.226 8.69823 13.039 8.72566 12.8256 8.9099C12.453 9.23038 12.3638 9.66515 12.3077 10.1091C12.2833 10.3029 12.2852 10.4995 12.2718 10.6942C12.2444 11.092 12.0454 11.3187 11.6316 11.3507C9.8272 11.4906 8.11725 11.2863 6.56697 10.264C5.53601 9.58469 4.70022 8.75126 3.95745 7.80628C2.37025 5.78785 1.14748 3.57513 0.0834358 1.276C0.0565829 1.21794 0.0278119 1.16079 0 1.10319C0 1.01221 0 0.920777 0 0.829342Z" fill="white"/>
</svg>
