<svg width="21" height="13" viewBox="0 0 21 13" fill="none" xmlns="http://www.w3.org/2000/svg">
<path d="M0 1.52853C0.120838 1.34382 0.300656 1.25554 0.526509 1.24332C0.635838 1.23743 0.744688 1.22792 0.854018 1.22702C1.74256 1.22159 2.63158 1.21887 3.52013 1.21389C3.97711 1.21163 4.27728 1.40222 4.48012 1.80196C5.01094 2.84728 5.56143 3.88399 6.1263 4.91346C6.36222 5.34309 6.66575 5.73785 7.07478 6.04434C7.16972 6.11542 7.27713 6.17925 7.38934 6.22045C7.64253 6.3137 7.83433 6.23493 7.9662 6.01265C8.16328 5.68036 8.17862 5.30959 8.2237 4.94606C8.32823 4.10129 8.31481 3.26151 8.13307 2.42399C8.0247 1.92329 7.70342 1.65483 7.19082 1.55569C6.92901 1.50498 6.91174 1.4416 7.09588 1.25373C7.31262 1.03326 7.57635 0.887936 7.89044 0.84357C9.0734 0.676972 10.2588 0.652978 11.4427 0.828178C12.0272 0.914646 12.2478 1.10524 12.3001 1.75715C12.3403 2.25694 12.2962 2.76307 12.29 3.26604C12.2818 3.93696 12.2651 4.60833 12.2723 5.27925C12.2746 5.47483 12.3202 5.67945 12.3931 5.86325C12.5499 6.25757 12.8712 6.31551 13.2097 6.05068C13.7626 5.61788 14.1318 5.05154 14.5116 4.49244C15.0885 3.64315 15.5584 2.74225 15.9569 1.80694C16.1688 1.30896 16.2637 1.25599 16.8238 1.25192C17.9243 1.24377 19.0253 1.22702 20.1258 1.22113C20.2941 1.22023 20.4686 1.23879 20.6293 1.28361C20.9429 1.37098 21.0412 1.53894 20.9851 1.8418C20.8983 2.30946 20.6695 2.72505 20.389 3.10442C19.6736 4.07187 18.9303 5.02075 18.2005 5.97915C18.037 6.19373 17.8687 6.40696 17.7287 6.63468C17.4894 7.02401 17.5268 7.3717 17.8596 7.69584C18.34 8.16349 18.844 8.60987 19.3312 9.07118C19.8625 9.5746 20.3708 10.0979 20.7568 10.7136C20.8354 10.839 20.9002 10.978 20.9414 11.1184C21.0891 11.6191 20.8326 11.8898 20.3176 11.9382C19.8563 11.9817 19.3892 11.9731 18.9251 11.9844C18.3237 11.9989 17.7224 12.0192 17.1211 12.0197C16.61 12.0202 16.1458 11.845 15.7689 11.5358C15.3527 11.1944 14.9849 10.8005 14.5969 10.4289C14.3145 10.1581 14.0364 9.8829 13.7496 9.6167C13.6734 9.54562 13.5761 9.49039 13.4797 9.44376C13.226 9.32063 13.039 9.34779 12.8256 9.53023C12.453 9.84758 12.3638 10.2781 12.3077 10.7177C12.2833 10.9096 12.2852 11.1043 12.2718 11.2972C12.2444 11.691 12.0454 11.9156 11.6316 11.9473C9.8272 12.0858 8.11725 11.8834 6.56697 10.8712C5.53601 10.1984 4.70022 9.37314 3.95745 8.43738C2.37025 6.43865 1.14748 4.24752 0.0834358 1.97083C0.0565829 1.91333 0.0278119 1.85674 0 1.7997C0 1.70961 0 1.61907 0 1.52853Z" fill="#FF7101"/>
</svg>
