<svg width="139" height="405" viewBox="0 0 139 405" fill="none" xmlns="http://www.w3.org/2000/svg">
<g clip-path="url(#clip0_626_782)">
<path d="M0.0537109 188.772C1.04748 188.665 2.06263 188.322 3.07777 187.777" stroke="#FF770D" stroke-miterlimit="10"/>
<path d="M8.02539 183.595C26.469 162.791 47.3809 85.4063 60.2466 54.0138C74.4479 19.3485 115.332 5.91442 131.093 1.93555" stroke="#FF770D" stroke-miterlimit="10" stroke-dasharray="6.09 6.09"/>
<path d="M134.267 1.16568C136.265 0.716452 137.408 0.523926 137.408 0.523926" stroke="#FF770D" stroke-miterlimit="10"/>
<path d="M0.833008 194.655C0.833008 194.655 34.6533 187.114 53.3 176.471C79.5334 161.497 96.1497 120.97 101.14 113.366C116.57 89.8347 138.177 86.626 138.177 86.626" stroke="#FF770D" stroke-miterlimit="10" stroke-dasharray="6 6"/>
<path d="M0.0537109 200.537C0.0537109 200.537 51.7513 195.724 70.2697 189.307C88.788 182.889 108.728 170.845 113.483 167.915C127.374 159.358 138.947 159.893 138.947 159.893" stroke="#FF770D" stroke-miterlimit="10" stroke-dasharray="6 6"/>
<path d="M0.0859375 216.228C1.07971 216.335 2.09486 216.677 3.11 217.223" stroke="#FF770D" stroke-miterlimit="10"/>
<path d="M8.04688 221.405C26.4904 242.208 47.4024 319.593 60.2681 350.986C74.4694 385.651 115.353 399.085 131.114 403.064" stroke="#FF770D" stroke-miterlimit="10" stroke-dasharray="6.09 6.09"/>
<path d="M134.288 403.834C136.286 404.283 137.43 404.476 137.43 404.476" stroke="#FF770D" stroke-miterlimit="10"/>
<path d="M0.854492 210.345C0.854492 210.345 34.6748 217.886 53.3214 228.528C79.5549 243.502 96.1712 284.029 101.161 291.634C116.592 315.165 138.198 318.374 138.198 318.374" stroke="#FF770D" stroke-miterlimit="10" stroke-dasharray="6 6"/>
<path d="M0.0859375 204.463C0.0859375 204.463 51.7835 209.276 70.3019 215.694C88.8203 222.111 108.76 234.155 113.515 237.085C127.406 245.642 138.979 245.107 138.979 245.107" stroke="#FF770D" stroke-miterlimit="10" stroke-dasharray="6 6"/>
</g>
<defs>
<clipPath id="clip0_626_782">
<rect width="139" height="405" fill="white"/>
</clipPath>
</defs>
</svg>
