<?xml version="1.0" encoding="utf-8"?><svg viewBox="0 0 21 13" xmlns="http://www.w3.org/2000/svg" xmlns:xlink="http://www.w3.org/1999/xlink"><style>:root>svg{display:none}:root>svg:target{display:block}</style><svg fill="none" viewBox="0 0 12 13" id="dzen-orange" xmlns="http://www.w3.org/2000/svg"><path d="M5.41.733C2.827.975.69 2.777.14 5.175a5.626 5.626 0 0 0-.138 1.03v.08l.458-.012c1.69-.04 2.582-.154 3.284-.417.799-.301 1.373-.845 1.688-1.6.21-.5.334-1.143.398-2.054.018-.283.051-1.095.051-1.337V.707L5.766.71a7.904 7.904 0 0 0-.357.024ZM6.24.962c0 .343.03 1.01.06 1.41.095 1.2.314 1.945.745 2.517.2.268.551.576.85.744.754.425 1.688.586 3.699.64l.406.011v-.071c0-.239-.063-.713-.139-1.038C11.347 2.928 9.432 1.19 7.03.789a10.678 10.678 0 0 0-.766-.082c-.017 0-.022.052-.022.255ZM.01 6.752c.122 1.586.857 2.96 2.134 3.996.778.634 1.851 1.1 2.888 1.258.204.032.633.073.761.073h.093l-.012-.377c-.034-1.124-.094-1.77-.218-2.333-.16-.733-.423-1.244-.853-1.667C4.028 6.945 2.96 6.675.545 6.627L0 6.616l.01.136ZM11.271 6.632c-2.276.071-3.301.365-4.042 1.155-.639.682-.894 1.597-.972 3.488-.023.588-.022.804.006.804.087 0 .588-.053.754-.08a6.336 6.336 0 0 0 1.9-.634c1.51-.803 2.596-2.194 2.952-3.786.058-.26.127-.761.13-.947 0-.01-.396-.011-.728 0Z" fill="#FF7101"/></svg><svg fill="none" viewBox="0 0 7 13" id="odnoklasniki-orange" xmlns="http://www.w3.org/2000/svg"><g clip-path="url(#ba)" fill="#FF7101"><path d="M4.108 8.805c.04.025.087.042.12.075l1.937 1.908c.164.16.269.343.265.579a.731.731 0 0 1-.78.714c-.221-.01-.392-.114-.544-.264-.505-.5-1.013-.997-1.513-1.497-.073-.075-.116-.072-.19 0-.525.521-1.055 1.043-1.585 1.561A.764.764 0 0 1 .81 11.9a.716.716 0 0 1-.04-1.043c.429-.436.868-.858 1.303-1.287.243-.24.486-.482.733-.722.022-.021.044-.046.08-.089l-.327-.057a5.137 5.137 0 0 1-1.88-.704 4.11 4.11 0 0 1-.431-.31c-.232-.19-.29-.448-.222-.72.07-.267.258-.435.538-.507.246-.064.457.011.645.147.476.336.998.565 1.572.665 1.045.185 2.01-.018 2.903-.59.138-.09.29-.16.446-.222.24-.092.65.075.795.369.141.289.083.657-.163.864-.345.293-.744.5-1.158.68a5.03 5.03 0 0 1-1.368.367.31.31 0 0 0-.062.015c-.01.003-.018.01-.025.017-.018.004-.03.018-.04.033Z"/><path d="M6.42 3.59c.003 1.591-1.34 2.895-2.965 2.874C1.88 6.442.562 5.152.573 3.559.588 1.997 1.905.689 3.527.707c1.59.018 2.9 1.3 2.892 2.884Zm-1.492-.006c.036-.68-.58-1.462-1.513-1.415-.726.035-1.35.625-1.357 1.393a1.425 1.425 0 0 0 1.433 1.44c.83 0 1.462-.679 1.437-1.418Z"/></g><defs><clipPath id="ba"><path fill="#fff" transform="translate(0 .707)" d="M0 0h7v11.374H0z"/></clipPath></defs></svg><svg fill="none" viewBox="0 0 11 13" id="triagle-orange" xmlns="http://www.w3.org/2000/svg"><path d="M10.037 6.574.319.89.255 12.148l9.782-5.574Z" fill="#FF7101"/></svg><svg fill="none" viewBox="0 0 21 13" id="vkontakte-orange" xmlns="http://www.w3.org/2000/svg"><path d="M0 1.529c.12-.185.3-.273.527-.286.109-.006.218-.015.327-.016l2.666-.013c.457-.002.757.188.96.588.53 1.045 1.081 2.082 1.646 3.111.236.43.54.825.949 1.131.095.071.202.135.314.176.254.094.445.015.577-.207.197-.333.213-.703.258-1.067a7.468 7.468 0 0 0-.09-2.522c-.11-.5-.43-.77-.943-.868-.262-.051-.28-.114-.095-.302.217-.22.48-.366.794-.41C9.073.677 10.26.653 11.443.828c.584.087.805.277.857.93.04.499-.004 1.005-.01 1.508-.008.671-.025 1.342-.018 2.013.003.196.048.4.121.584.157.395.478.453.817.188.553-.433.922-1 1.302-1.559.576-.849 1.046-1.75 1.445-2.685.212-.498.307-.551.867-.555 1.1-.008 2.201-.025 3.302-.03.168-.002.343.017.503.062.314.087.412.255.356.558-.087.467-.316.883-.596 1.262-.715.968-1.459 1.917-2.188 2.875-.164.215-.332.428-.472.656-.24.389-.202.737.13 1.06.481.468.985.915 1.472 1.376.532.504 1.04 1.027 1.426 1.643.078.125.143.264.184.404.148.501-.108.772-.623.82-.462.044-.929.035-1.393.046-.601.015-1.203.035-1.804.036-.511 0-.975-.175-1.352-.484-.416-.342-.784-.736-1.172-1.107-.282-.27-.56-.546-.847-.812a1.094 1.094 0 0 0-.27-.173c-.254-.123-.441-.096-.654.086-.373.318-.462.748-.518 1.188-.025.192-.023.386-.036.58-.028.393-.227.618-.64.65-1.805.138-3.515-.065-5.065-1.077-1.031-.673-1.867-1.498-2.61-2.434C2.37 6.44 1.147 4.247.083 1.971.057 1.913.028 1.857 0 1.8v-.271Z" fill="#FF7101"/></svg></svg>