<svg width="215" height="43" viewBox="0 0 215 43" fill="none" xmlns="http://www.w3.org/2000/svg">
<g clip-path="url(#clip0_879_1465)">
<path d="M215 14.1091H206.066L199.634 20.4737H198.285V14.1091H186.747V42.9999H198.285V35.0913L199.427 34.061L205.158 42.9999H214.995V37.2228L207.327 26.9449L215 20.0283V14.1091ZM171.091 29.94L169.565 23.5973H168.511L166.919 29.94H171.091ZM185.102 37.078V43.0026H174.33L173.05 37.6737H165.079L163.744 43.0026H154.225V37.078L161.484 14.1119H177.846L185.102 37.078ZM142.079 14.1091H141.927H137.957L134.646 23.0261H133.636L129.826 14.1091H125.797H115.139V42.9999H125.797V29.6449H126.887L130.926 38.939H133.228H134.646H136.759L140.799 29.6449H141.927V42.9999H152.586V14.1091H142.079ZM102.648 23.0097C102.648 23.0097 102.328 21.9604 100.551 21.9604H96.6773V24.4499V26.9394H100.551C102.328 26.9394 102.648 25.8901 102.648 25.8901V24.4499V23.0097ZM113.508 19.3506V24.3023V24.5428V29.4918C113.508 29.4918 110.628 34.7305 104.29 34.7305H96.6773V42.9999H85.1248V14.1091H94.9888H96.6773H104.29C110.628 14.1091 113.508 19.3506 113.508 19.3506ZM71.125 35.1514V32.394H79.9322V24.5401H71.125V21.9604H83.1603V14.1091H71.125H68.6611H59.5725V42.9999H68.6611H71.125H83.4804V35.1487H71.125V35.1514Z" fill="white"/>
<path d="M54.2832 13.2156L45.4016 36.149L27.1416 27.2593L8.88165 36.149L6.63572 30.35L27.1416 20.3645V16.7518L5.45757 27.3112L3.21439 21.5123L27.1416 9.8598V6.89202L2.24593 19.0146L0 13.2156L27.1416 0L54.2832 13.2156Z" fill="white"/>
<path d="M9.62378 39.2643V42.9699H27.1415H44.6565V39.2643L27.1415 30.749L9.62378 39.2643Z" fill="white"/>
</g>
<defs>
<clipPath id="clip0_879_1465">
<rect width="215" height="43" fill="white"/>
</clipPath>
</defs>
</svg>
